
        <svg width="40" height="40" viewBox="0 0 81 81" fill="none" xmlns="http://www.w3.org/2000/svg">
          <rect x="0.255859" y="0.667969" width="40" height="40" rx="20" fill="#283754" fillOpacity="0.6" />
          <path d="M12.567 30.668C12.9998 30.668 13.3563 30.5173 13.8146 30.2537L28.0465 22.1055C28.9249 21.5908 29.2559 21.2518 29.2559 20.6742C29.2559 20.0967 28.9249 19.7452 28.0465 19.243L13.8146 11.0823C13.3563 10.8312 12.9998 10.668 12.567 10.668C11.7651 10.668 11.2559 11.2706 11.2559 12.2248V29.1237C11.2559 30.0653 11.7651 30.668 12.567 30.668ZM13.0635 28.7471C12.9871 28.7471 12.9235 28.6843 12.9235 28.5587V12.7772C12.9235 12.6516 12.9871 12.6014 13.0635 12.6014C13.1399 12.6014 13.1908 12.6265 13.2544 12.6642L26.939 20.4859C27.0154 20.5236 27.0918 20.5864 27.0918 20.6742C27.0918 20.7621 27.0154 20.8123 26.939 20.8626L13.2544 28.6843C13.1908 28.722 13.1399 28.7471 13.0635 28.7471Z" fill="white" />
        </svg>
