<?xml version="1.0" encoding="UTF-8"?>
<svg width="19" height="18" viewBox="0 0 19 18" fill="none" xmlns="http://www.w3.org/2000/svg">
<path fill-rule="evenodd" clip-rule="evenodd" d="M14.3482 10.9623C13.737 13.0198 11.9402 14.4 9.87442 14.4C7.80867 14.4 6.01183 13.0198 5.40066 10.9623C5.2662 10.5278 5.49844 10.0805 5.91404 9.93993C6.31741 9.79935 6.75745 10.0422 6.89191 10.4767C7.29528 11.8441 8.5054 12.7642 9.87442 12.7642C11.2434 12.7642 12.4536 11.8441 12.8569 10.4767C12.9914 10.0422 13.4314 9.79935 13.847 9.93993C14.2504 10.0805 14.4826 10.5278 14.3482 10.9623ZM8.06967 6.75C8.06967 7.49883 7.46689 8.1 6.71607 8.1C5.96524 8.1 5.36246 7.49883 5.36246 6.75C5.36246 6.00117 5.96524 5.4 6.71607 5.4C7.46689 5.4 8.06967 6.00117 8.06967 6.75ZM14.3865 6.75C14.3865 7.49883 13.7837 8.1 13.0329 8.1C12.282 8.1 11.6793 7.49883 11.6793 6.75C11.6793 6.00117 12.282 5.4 13.0329 5.4C13.7837 5.4 14.3865 6.00117 14.3865 6.75ZM17.5449 9C17.5449 4.78055 14.1052 1.35 9.87447 1.35C5.64376 1.35 2.20406 4.78055 2.20406 9C2.20406 13.2195 5.64376 16.65 9.87447 16.65C14.1052 16.65 17.5449 13.2195 17.5449 9ZM18.8985 9C18.8985 13.9688 14.8565 18 9.87447 18C4.89246 18 0.850464 13.9688 0.850464 9C0.850464 4.03125 4.89246 0 9.87447 0C14.8565 0 18.8985 4.03125 18.8985 9Z" fill="#9B9B9B"/>
</svg>
