<?xml version="1.0" encoding="UTF-8"?>
<svg width="22" height="19" viewBox="0 0 22 19" fill="none" xmlns="http://www.w3.org/2000/svg">
<path fill-rule="evenodd" clip-rule="evenodd" d="M7.89924 1.50013L9.78416 1.50007H9.78619C11.3408 1.50001 13.1234 1.49993 14.3991 1.50013L14.4018 1.4998C14.4117 1.49815 14.4366 1.49401 14.4983 1.58409C14.5836 1.70873 14.6639 1.92246 14.7215 2.21004C14.7409 2.30651 14.7563 2.40417 14.7686 2.49995H7.24083C7.25494 2.41557 7.2723 2.33007 7.29354 2.24574C7.3621 1.97359 7.45683 1.77195 7.56185 1.65024C7.64476 1.55416 7.73556 1.50013 7.89924 1.50013ZM5.72592 2.49995C5.74914 2.3069 5.7847 2.09481 5.83899 1.8793C5.93574 1.49526 6.10656 1.04071 6.42622 0.670267C6.768 0.2742 7.26104 0.000131058 7.89924 0.000130879L9.78391 7.24069e-05C11.339 4.93444e-06 13.123 -7.23728e-05 14.3994 0.000130879C15.0273 0.000230896 15.4672 0.344193 15.7359 0.736585C15.9876 1.10411 16.1183 1.54657 16.1922 1.91516C16.2328 2.11746 16.2599 2.31699 16.278 2.49995H18.8722C20.529 2.49995 21.8722 3.84309 21.8722 5.49995V15.3124C21.8722 16.9693 20.529 18.3124 18.8722 18.3124H3.5625C1.90564 18.3124 0.5625 16.9693 0.5625 15.3124V5.49995C0.5625 3.84309 1.90565 2.49995 3.5625 2.49995H5.72592ZM5.71853 3.99995H3.5625C2.73407 3.99995 2.0625 4.67152 2.0625 5.49995V15.3124C2.0625 16.1409 2.73407 16.8124 3.5625 16.8124H18.8722C19.7006 16.8124 20.3722 16.1409 20.3722 15.3124V5.49995C20.3722 4.67152 19.7006 3.99995 18.8722 3.99995H16.2857L16.2805 4.12491H15.5611L12.6861 4.12491H8.9361H6.43611H5.72523L5.71853 3.99995Z" fill="#757474"/>
<rect x="7.62769" y="6.15625" width="8.02533" height="8" rx="4" stroke="#757474" stroke-width="1.5"/>
<path fill-rule="evenodd" clip-rule="evenodd" d="M10.7774 2.31649C9.01757 2.28019 7.32761 2.27818 7.28672 2.40269C7.26882 2.4572 7.2556 2.52112 7.24066 2.5933C7.18392 2.86751 7.10249 3.261 6.64637 3.71117C6.39494 3.95932 6.09207 3.97489 5.79128 3.99036C5.49817 4.00543 5.20704 4.02039 4.96741 4.25037L10.7774 5.09596V2.31649Z" fill="white"/>
<path fill-rule="evenodd" clip-rule="evenodd" d="M11.2457 2.31649C13.0055 2.28019 14.6955 2.27818 14.7363 2.40269C14.7542 2.4572 14.7675 2.52112 14.7824 2.5933C14.8392 2.86751 14.9206 3.261 15.3767 3.71117C15.6281 3.95932 15.931 3.97489 16.2318 3.99036C16.5249 4.00543 16.816 4.02039 17.0557 4.25037L11.2457 5.09596V2.31649Z" fill="white"/>
<rect x="10.1393" y="2.17969" width="2.19531" height="2.4375" fill="white"/>
</svg>
