<svg width="22" height="21" viewBox="0 0 22 21" fill="none" xmlns="http://www.w3.org/2000/svg">
<g clip-path="url(#clip0)">
<path d="M10.9892 0.205078C9.05215 0.205078 7.4762 1.77684 7.4762 3.70871V10.5946C7.4762 12.5262 9.05215 14.098 10.9892 14.098C12.9262 14.098 14.5022 12.5372 14.5022 10.6187V3.70871C14.5022 1.77684 12.9262 0.205078 10.9892 0.205078ZM13.0382 10.6185C13.0382 11.7319 12.1189 12.6379 10.9892 12.6379C9.85941 12.6379 8.93993 11.7214 8.93993 10.5944V3.70871C8.93993 2.58172 9.85918 1.66492 10.9892 1.66492C12.1192 1.66492 13.0384 2.58172 13.0382 3.70871V10.6185Z" fill="#757474"/>
<path d="M11.7211 16.1904H10.2573V19.4751H11.7211V16.1904Z" fill="#757474"/>
<path d="M12.9165 18.7451H9.06195C8.65771 18.7451 8.33008 19.0719 8.33008 19.475C8.33008 19.8782 8.65771 20.205 9.06195 20.205H12.9165C13.3207 20.205 13.6484 19.8782 13.6484 19.475C13.6484 19.0719 13.3207 18.7451 12.9165 18.7451Z" fill="#757474"/>
<path d="M16.5271 9.37793C16.1228 9.37793 15.7952 9.70469 15.7952 10.1078V10.6918C15.7952 13.3346 13.6391 15.485 10.9892 15.485C8.33911 15.485 6.18322 13.3346 6.18322 10.6918V10.1078C6.18322 9.70469 5.85559 9.37793 5.45135 9.37793C5.04711 9.37793 4.71948 9.70469 4.71948 10.1078V10.6918C4.71948 14.1397 7.53208 16.9448 10.9892 16.9448C14.4463 16.9448 17.2589 14.1397 17.2589 10.6918V10.1078C17.2589 9.70473 16.9313 9.37793 16.5271 9.37793Z" fill="#757474"/>
</g>
<defs>
<clipPath id="clip0">
<rect width="20.0533" height="20" fill="white" transform="translate(0.962524 0.205078)"/>
</clipPath>
</defs>
</svg>
