<svg width="16" height="16" viewBox="0 0 16 16" fill="none" xmlns="http://www.w3.org/2000/svg">
<path d="M15.8533 15.13L11.4414 10.7181C12.2409 9.77259 12.7539 8.61841 12.9198 7.39132C13.0857 6.16423 12.8978 4.91527 12.3781 3.79134C11.8585 2.66741 11.0286 1.71525 9.98627 1.04685C8.9439 0.378459 7.73234 0.0216225 6.49409 0.0183165C5.44807 0.0168948 4.41723 0.268512 3.4895 0.751705C2.56177 1.2349 1.76468 1.93533 1.16624 2.79324C0.567792 3.65116 0.185744 4.6411 0.0526849 5.67862C-0.0803742 6.71614 0.0395042 7.77045 0.402094 8.75162C0.764684 9.73279 1.35922 10.6117 2.135 11.3133C2.91077 12.015 3.84476 12.5186 4.85729 12.7812C5.86981 13.0438 6.93083 13.0575 7.94982 12.8213C8.96882 12.5851 9.91556 12.1059 10.7093 11.4246L15.1212 15.8365C15.2284 15.9255 15.3621 15.9764 15.5014 15.9812C15.6 15.9812 15.6964 15.952 15.7784 15.8972C15.8604 15.8424 15.9243 15.7645 15.962 15.6734C15.9998 15.5823 16.0097 15.482 15.9904 15.3853C15.9712 15.2886 15.923 15.1997 15.8533 15.13ZM6.52171 11.9903C5.43638 11.9903 4.37543 11.6685 3.47302 11.0655C2.57061 10.4625 1.86728 9.60543 1.45197 8.60271C1.03666 7.59998 0.928031 6.49662 1.13982 5.43215C1.3516 4.36768 1.87429 3.38993 2.64178 2.62253C3.40927 1.85513 4.38709 1.33256 5.45158 1.1209C6.51607 0.909245 7.61942 1.01801 8.6221 1.43344C9.62478 1.84886 10.4817 2.5523 11.0846 3.45478C11.6875 4.35726 12.0092 5.41826 12.0091 6.50359C12.0103 7.22451 11.8692 7.93858 11.5939 8.60485C11.3185 9.27112 10.9143 9.87649 10.4045 10.3862C9.89474 10.896 9.28933 11.3001 8.62303 11.5753C7.95673 11.8506 7.24264 11.9916 6.52171 11.9903Z" fill="#283754"/>
</svg>
